<svg width="608" height="608" viewBox="0 0 608 608" fill="none" xmlns="http://www.w3.org/2000/svg">
<path d="M455.741 455.741C539.641 371.842 539.641 235.814 455.741 151.914C371.841 68.0143 235.813 68.0139 151.913 151.913C68.0139 235.813 68.0142 371.841 151.914 455.741C235.814 539.641 371.842 539.641 455.741 455.741Z" fill="#A3F5F8"/>
<path d="M206.857 182.494H99.8311C102.361 177.051 107.327 173.601 112.949 171.499C118.571 169.397 125.016 169.598 130.497 172.046C134.441 164.404 140.719 157.793 148.629 154.42C156.54 151.047 166.109 151.216 173.414 155.756C180.719 160.296 185.189 169.414 183.378 177.821C185.967 174.457 190.449 172.661 194.644 173.307C198.839 173.952 205.399 178.508 206.857 182.494Z" fill="#E6FCFC"/>
<path d="M518.977 188.827H414.831C418.906 182.352 429.321 179.26 436.067 182.869C440.574 173.421 450.964 167.106 461.426 167.455C471.888 167.804 481.834 174.797 485.702 184.525C490.21 180.196 496.758 178.09 502.944 178.979C509.13 179.867 515.87 183.404 518.977 188.827Z" fill="#E6FCFC"/>
<path d="M422.886 158.827H277.831C279.524 149.022 289.233 139.316 298.693 136.232C308.152 133.148 319.224 135.707 326.37 142.629C331.488 137.479 339.181 135.028 346.334 136.268C353.487 137.508 359.907 142.405 362.993 148.976C365.586 145.668 370.174 144.064 374.263 145.036C378.352 146.008 381.727 149.505 382.554 153.627C388.372 149.162 395.916 147.009 403.214 147.733C410.512 148.458 418.059 153.306 422.886 158.827Z" fill="#E6FCFC"/>
<path d="M326.538 211.161H238.831C239.822 206.379 243.126 202.204 247.535 200.103C251.944 198.002 257.333 198.09 261.671 200.333C265.694 195.192 272.728 192.603 279.125 193.909C285.521 195.215 290.977 200.354 292.663 206.661C302.277 200.028 318.219 202.963 326.538 211.161Z" fill="#E6FCFC"/>
<path d="M284.166 123.827H228.165C235.791 117.058 245.387 113.99 255.583 113.84C265.778 113.69 276.344 117.285 284.166 123.827Z" fill="#E6FCFC"/>
<path d="M333.174 116.161H308.831C311.327 112.139 315.119 110.062 319.828 109.571C324.536 109.08 329.901 112.74 333.174 116.161Z" fill="#E6FCFC"/>
<path d="M252.833 179.827H223.831C227.2 175.692 232.003 173.377 237.32 172.955C242.638 172.534 248.855 176.274 252.833 179.827Z" fill="#E6FCFC"/>
<path d="M492.18 160.345C443.629 160.607 365.428 167.175 317.514 175.014C366.064 174.752 444.265 168.184 492.18 160.345Z" fill="#E6FCFC"/>
<path d="M66.8149 195.905C110.489 201.093 181.521 203.925 225.469 202.231C181.795 197.043 110.763 194.211 66.8149 195.905Z" fill="#E6FCFC"/>
<path d="M273.887 254.468C262.945 247.797 250.053 245.062 237.345 246.717C222.112 248.701 206.731 244.368 194.774 234.724L186.1 227.728C175.202 218.939 161.418 214.53 147.442 215.364L136.648 216.008C127.428 216.558 118.292 214.816 110.008 211.046C101.934 227.884 95.9939 245.938 92.5269 264.857H290.93L273.887 254.468Z" fill="#E6FCFC"/>
<path d="M461.175 208.226C454.966 205.795 447.947 206.682 442.538 210.58L414.083 231.085C409.826 234.152 404.284 234.794 399.438 232.781C395.663 231.213 391.414 231.239 387.659 232.854L381.034 235.703C376.842 237.506 372.061 237.32 368.022 235.197L359.431 230.681C352.599 227.09 344.344 227.56 337.965 231.904L316.331 246.634L331.915 242.011C338.594 240.03 345.822 241.51 351.184 245.958L373.972 264.86H515.137C510.718 240.744 502.276 218.037 490.526 197.459L480.481 205.369C475.009 209.678 467.662 210.766 461.175 208.226Z" fill="#E6FCFC"/>
<path d="M88.991 303.827C88.991 311.101 89.357 318.289 90.063 325.377C93.294 325.245 96.578 324.588 99.631 323.667C107.127 321.407 114.455 317.847 122.284 317.909C127.184 317.948 132.006 319.423 136.904 319.281C149.011 318.929 158.926 308.984 170.906 307.203C179.853 305.873 188.752 309.24 197.724 310.386C209.675 311.913 222.109 309.361 232.492 303.25C239.337 299.222 238.721 304.281 245.664 308.137C252.607 311.993 259.16 317.524 267.09 317.964C271.913 318.231 276.686 316.532 281.508 316.808C295.623 317.617 305.733 334.644 319.785 333.087C328.993 332.066 335.574 323.24 344.573 321.039C351.36 319.379 358.459 321.739 364.817 324.638C371.175 327.537 377.444 331.059 384.382 331.887C387.516 332.261 391.904 332.158 394.707 330.481C397.274 328.945 399.38 326.207 401.982 324.518C407.665 320.829 414.26 318.537 421.018 317.989C430.915 317.187 440.622 320.033 449.65 323.842C459.03 327.8 467.156 333.406 477.848 331.508C488.637 329.593 496.95 320.728 507.438 317.558C510.947 316.497 514.644 316.173 518.291 316.492C518.535 312.3 518.673 308.079 518.673 303.826C518.673 302.443 518.647 301.066 518.621 299.689H89.043C89.017 301.068 88.991 302.444 88.991 303.827Z" fill="white"/>
<path d="M507.438 317.559C496.95 320.73 488.636 329.594 477.848 331.509C467.157 333.407 459.031 327.801 449.65 323.843C440.622 320.034 430.915 317.188 421.018 317.99C414.261 318.538 407.665 320.831 401.982 324.519C399.38 326.208 397.274 328.947 394.707 330.482C391.904 332.159 387.516 332.262 384.382 331.888C377.444 331.059 371.175 327.537 364.817 324.639C358.459 321.741 351.36 319.38 344.573 321.04C335.574 323.241 328.993 332.067 319.785 333.088C305.733 334.645 295.623 317.618 281.508 316.809C276.685 316.533 271.913 318.232 267.09 317.965C259.16 317.526 252.607 311.995 245.664 308.138C238.721 304.282 239.337 299.223 232.492 303.251C222.109 309.362 209.674 311.914 197.724 310.387C188.752 309.241 179.853 305.873 170.906 307.204C158.926 308.986 149.011 318.931 136.904 319.282C132.006 319.424 127.184 317.949 122.284 317.91C114.455 317.847 107.127 321.408 99.631 323.668C96.577 324.589 93.294 325.245 90.063 325.378C90.701 331.783 91.632 338.101 92.82 344.329L511.42 359.324C512.128 356.67 512.79 353.998 513.397 351.304L137.363 340.698L515.698 339.551C516.964 331.991 517.836 324.299 518.29 316.493C514.644 316.174 510.947 316.498 507.438 317.559Z" fill="#00B8C8"/>
<path d="M513.398 351.303C514.273 347.425 515.037 343.506 515.699 339.551L137.364 340.698L513.398 351.303Z" fill="white"/>
<path d="M303.831 518.668C403.292 518.668 486.953 451.075 511.42 359.323L92.8201 344.328C111.763 443.615 199.025 518.668 303.831 518.668Z" fill="#00E9F0"/>
<path d="M97.5159 276.196C100.395 275.081 102.893 272.567 105.976 272.719C109.107 272.873 111.327 275.679 113.881 277.497C121.587 282.98 129.85 277.819 136.937 274.101C141.081 271.927 145.903 270.25 150.388 271.591C153.594 272.549 156.372 274.987 159.716 275.125C163.257 275.27 166.293 272.82 169.526 271.366C176.451 268.252 181.159 277.252 188.632 275.284C191.826 274.443 194.264 271.884 197.253 270.478C202.682 267.926 207.841 270.619 213.315 271.287C217.79 271.833 222.48 270.206 225.656 267.006C229.222 263.412 232.834 267.746 237.475 269.771C242.116 271.796 246.154 274.98 250.659 277.291C255.164 279.601 260.555 281.005 265.271 279.165C268.579 277.874 271.187 275.128 274.55 273.989C279.827 272.201 285.532 274.745 290.324 277.587C295.116 280.429 300.084 283.752 305.654 283.621C315.429 283.391 322.1 272.857 331.691 270.952C336.46 270.004 341.25 271.327 345.851 272.498C350.097 273.578 354.264 275.092 358.584 273.549C361.252 272.597 363.654 271.032 366.244 269.885C368.834 268.738 371.789 268.015 374.492 268.863C376.526 269.501 378.188 270.953 380.064 271.967C383.615 273.886 387.865 274.175 391.852 273.547C395.412 272.987 398.764 270.924 402.239 270.451C404.571 270.134 407.436 271.73 409.422 272.857C414.229 275.585 418.753 280.049 424.586 280.229C433.251 280.496 440.266 270.588 448.79 272.169C454.281 273.188 458.343 278.837 463.928 278.886C469.617 278.936 473.639 273.22 479.062 271.5C483.093 270.221 487.508 271.292 491.386 272.978C495.265 274.664 498.883 276.96 502.899 278.289C507.504 279.813 512.505 279.848 517.197 278.645C516.655 274.004 515.972 269.407 515.139 264.862H92.5259C91.8199 268.714 91.2079 272.598 90.7109 276.519C92.9849 277.038 95.3559 277.032 97.5159 276.196Z" fill="white"/>
<path d="M89.636 287.252C89.479 289.325 89.348 291.405 89.25 293.494H268.164L89.636 287.252Z" fill="white"/>
<path d="M518.619 299.691C518.58 297.618 518.517 295.552 518.419 293.494H283.165L518.053 287.409C517.831 284.468 517.535 281.549 517.195 278.642C512.503 279.845 507.502 279.81 502.897 278.286C498.882 276.957 495.263 274.661 491.384 272.975C487.505 271.289 483.091 270.218 479.06 271.497C473.637 273.218 469.615 278.933 463.926 278.883C458.342 278.834 454.279 273.185 448.788 272.166C440.264 270.584 433.249 280.493 424.584 280.226C418.751 280.046 414.227 275.582 409.42 272.854C407.433 271.727 404.569 270.131 402.237 270.448C398.762 270.921 395.41 272.984 391.85 273.544C387.863 274.171 383.613 273.883 380.062 271.964C378.187 270.95 376.524 269.499 374.49 268.86C371.787 268.012 368.832 268.735 366.242 269.882C363.652 271.029 361.249 272.594 358.582 273.546C354.261 275.088 350.094 273.575 345.849 272.495C341.248 271.324 336.458 270.001 331.689 270.949C322.098 272.855 315.428 283.389 305.652 283.618C300.082 283.749 295.114 280.426 290.322 277.584C285.53 274.742 279.825 272.198 274.548 273.986C271.185 275.126 268.577 277.872 265.269 279.162C260.552 281.002 255.162 279.598 250.657 277.288C246.152 274.978 242.113 271.793 237.473 269.768C232.832 267.743 229.221 263.409 225.654 267.003C222.479 270.203 217.788 271.83 213.313 271.284C207.839 270.616 202.68 267.923 197.251 270.475C194.262 271.88 191.824 274.44 188.63 275.281C181.156 277.249 176.449 268.25 169.524 271.363C166.291 272.817 163.254 275.268 159.714 275.122C156.371 274.985 153.593 272.546 150.386 271.588C145.902 270.248 141.08 271.924 136.935 274.098C129.848 277.817 121.585 282.978 113.879 277.494C111.325 275.677 109.104 272.87 105.974 272.716C102.89 272.564 100.393 275.078 97.514 276.193C95.354 277.029 92.983 277.035 90.709 276.513C90.258 280.064 89.906 283.645 89.634 287.248L268.162 293.49H89.25C89.154 295.549 89.082 297.614 89.043 299.687H518.619V299.691Z" fill="#4EF5F2"/>
<path d="M518.42 293.494C518.324 291.459 518.205 289.429 518.053 287.409L283.165 293.494H518.42Z" fill="white"/>
<path d="M148.916 238.359C136.187 256.803 130.808 279.524 129.92 301.916C129.031 324.309 132.362 346.63 135.7 368.79L116.991 375.155C115.983 351.292 114.98 327.281 118.15 303.608C121.32 279.935 128.919 256.375 143.546 237.493L148.916 238.359Z" fill="#978093"/>
<path d="M116.991 375.156L135.7 368.791C135.027 364.325 134.357 359.853 133.719 355.374C127.264 353.535 121.202 350.326 116.049 346.025C116.177 355.738 116.581 365.459 116.991 375.156Z" fill="#645B79"/>
<path d="M148.916 238.359L143.545 237.493C137.685 245.058 132.969 253.382 129.198 262.155C132.4 260.217 135.687 258.421 139.045 256.769C141.676 250.308 144.937 244.125 148.916 238.359Z" fill="#645B79"/>
<path d="M127.278 347.167C126.305 338.967 124.973 328.515 124.453 317.996C123.88 307.48 124.122 296.946 124.24 288.689C121.539 296.483 119.936 307.358 120.532 318.199C121.064 329.044 123.784 339.695 127.278 347.167Z" fill="#CEB49D"/>
<path d="M127.363 301.576C127.655 297.364 127.965 291.982 128.667 286.64C129.343 281.295 130.407 276.011 131.192 271.862C129.146 275.551 127.369 280.878 126.676 286.384C125.951 291.885 126.319 297.489 127.363 301.576Z" fill="#CEB49D"/>
<path d="M118.874 244.179C127.271 241.916 135.695 240.292 143.791 239.432C132.124 228.463 114.173 224.712 99.0889 230.089C84.0049 235.466 72.4759 249.728 70.3779 265.603C75.6469 262.083 81.3809 258.835 87.4049 255.9C88.3289 253.032 89.2529 250.164 90.1769 247.296C90.0499 249.789 89.9229 252.281 89.7949 254.774C92.3489 253.58 94.9469 252.442 97.5839 251.364C98.6499 248.136 99.9359 244.98 101.458 241.94C101.35 244.609 101.242 247.278 101.135 249.947C105.794 248.16 110.541 246.559 115.316 245.167C116.83 242.879 118.344 240.59 119.858 238.302C119.53 240.261 119.202 242.22 118.874 244.179Z" fill="#00C6C1"/>
<path d="M116.334 203.247C102.096 196.476 84.4629 197.416 71.0259 205.662C76.5989 206.841 83.0049 208.995 89.6559 211.663C93.9829 210.267 98.5059 209.475 103.051 209.331C100.726 211.007 98.4019 212.683 96.0769 214.36C101.351 216.667 106.66 219.2 111.723 221.743C116.276 221.178 120.829 220.613 125.383 220.047C122.752 221.596 120.12 223.145 117.489 224.694C132.313 232.42 143.79 239.432 143.79 239.432C141.706 223.805 130.572 210.018 116.334 203.247Z" fill="#009F9A"/>
<path d="M108.142 151.781C112.983 158.674 117.377 166.608 121.297 174.825C123.964 175.315 126.578 176.098 129.071 177.165C127.173 177.878 125.275 178.592 123.378 179.305C124.578 181.96 125.726 184.63 126.826 187.291C128.9 187.425 130.974 187.559 133.048 187.692C131.503 188.809 129.901 189.848 128.254 190.809C138.318 216.055 143.776 239.429 143.776 239.429C165.242 177.597 108.142 151.781 108.142 151.781Z" fill="#00C6C1"/>
<path d="M221.703 185.769C221.703 185.769 159.808 175.971 143.776 239.428C143.776 239.428 155.647 228.15 172.331 215.454C170.757 214.271 169.184 213.088 167.61 211.905C170.068 212.2 172.489 212.771 174.833 213.565C179.123 210.359 183.693 207.096 188.431 203.927C185.227 202.25 181.805 200.99 178.276 200.199C182.639 200.447 186.976 201.091 191.233 202.078C201.088 195.665 211.562 189.783 221.703 185.769Z" fill="#009F9A"/>
<path d="M223.115 251.182C216.417 236.91 202.2 226.437 186.583 224.273C170.967 222.108 154.089 227.512 143.762 239.424C143.762 239.424 152.037 239.698 163.633 240.632C162.98 238.611 162.105 236.661 160.985 234.855C163.217 236.895 165.449 238.934 167.681 240.974C173.006 241.445 178.851 242.05 184.812 242.817C184.345 240.065 183.878 237.312 183.411 234.56C185.28 237.501 187.149 240.443 189.017 243.384C201.508 245.146 214.092 247.65 223.115 251.182Z" fill="#00C6C1"/>
<path d="M186.246 256.175C176.596 243.395 159.536 236.668 143.761 239.423C149.568 244.191 155.252 249.657 160.633 255.583C161.796 253.687 162.96 251.792 164.124 249.896C164.081 252.771 163.749 255.637 163.177 258.455C166.526 262.306 169.736 266.327 172.764 270.472C174.417 267.127 176.07 263.783 177.723 260.438C177.516 264.756 176.404 269.021 174.517 272.91C181.039 282.159 186.624 291.928 190.725 301.623C197.694 287.205 195.896 268.955 186.246 256.175Z" fill="#009F9A"/>
<path d="M171.705 366.661C161.665 348.828 158.343 308.105 171.705 283.722L166.113 285.28C152.751 309.663 149.29 337.64 156.306 364.545L171.705 366.661Z" fill="#978093"/>
<path d="M171.705 283.721L166.113 285.279C163.455 290.129 161.196 295.123 159.326 300.221C161.425 298.432 163.92 297.117 166.576 296.379C167.894 291.855 169.589 287.583 171.705 283.721Z" fill="#645B79"/>
<path d="M154.322 355.317C154.85 358.402 155.506 361.48 156.305 364.544L171.704 366.661C170.432 364.401 169.269 361.772 168.233 358.857C163.412 358.726 158.624 357.498 154.322 355.317Z" fill="#645B79"/>
<path d="M158.739 354.438C158.162 348.522 157.492 340.98 157.592 333.417C157.649 325.854 158.476 318.327 159.177 312.425C156.66 317.802 154.82 325.548 154.766 333.388C154.656 341.227 156.335 349.01 158.739 354.438Z" fill="#CEB49D"/>
<path d="M151.35 296.621C156.904 292.329 162.676 288.506 168.441 285.353C156.345 280.802 141.807 283.577 132.238 292.264C122.669 300.951 118.505 315.154 121.869 327.632C124.702 323.374 127.966 319.175 131.544 315.12C131.342 312.697 131.141 310.273 130.939 307.85C131.618 309.746 132.296 311.643 132.975 313.54C134.507 311.858 136.089 310.204 137.72 308.583C137.513 305.847 137.491 303.097 137.682 300.359C138.43 302.381 139.178 304.403 139.926 306.425C142.842 303.648 145.883 300.982 149.008 298.463C149.426 296.288 149.844 294.114 150.262 291.939C150.623 293.498 150.987 295.059 151.35 296.621Z" fill="#008C6F"/>
<path d="M139.631 262.684C127.134 260.295 113.554 264.62 104.739 273.795C109.331 273.581 114.773 273.959 120.51 274.689C123.605 272.717 126.976 271.179 130.496 270.141C129.022 271.923 127.548 273.706 126.074 275.488C130.663 276.216 135.325 277.113 139.796 278.068C143.237 276.7 146.678 275.331 150.118 273.963C148.378 275.708 146.639 277.454 144.9 279.199C158.05 282.214 168.441 285.354 168.441 285.354C163.631 273.573 152.129 265.072 139.631 262.684Z" fill="#00656C"/>
<path d="M120.648 225.785C125.982 229.999 131.211 235.121 136.139 240.571C138.315 240.335 140.517 240.337 142.691 240.587C141.388 241.577 140.085 242.566 138.782 243.556C140.322 245.333 141.827 247.132 143.292 248.936C144.927 248.561 146.562 248.186 148.196 247.811C147.259 249.032 146.26 250.204 145.208 251.327C158.817 268.529 168.431 285.346 168.431 285.346C170.765 232.576 120.648 225.785 120.648 225.785Z" fill="#008C6F"/>
<path d="M224.127 233.111C224.127 233.111 173.553 232.773 168.43 285.346C168.43 285.346 176.54 274.912 188.318 262.765C186.919 262.011 185.521 261.258 184.122 260.504C186.119 260.442 188.12 260.605 190.087 260.956C193.122 257.879 196.375 254.723 199.773 251.622C197.014 250.671 194.131 250.08 191.219 249.875C194.731 249.546 198.269 249.535 201.785 249.809C208.873 243.499 216.52 237.54 224.127 233.111Z" fill="#00656C"/>
<path d="M232.932 290.776C226.811 279.621 214.827 271.909 202.139 270.96C189.451 270.011 176.131 275.221 168.419 285.341C168.419 285.341 175.098 285.141 184.485 285.303C183.856 283.708 183.052 282.182 182.058 280.785C183.959 282.314 185.861 283.844 187.762 285.373C192.075 285.482 196.813 285.671 201.654 285.986C201.138 283.793 200.622 281.6 200.106 279.407C201.761 281.681 203.415 283.955 205.07 286.229C215.222 287.013 225.485 288.39 232.932 290.776Z" fill="#008C6F"/>
<path d="M200.99 302.591C194.398 291.475 181.319 284.548 168.419 285.341C172.649 289.687 176.717 294.581 180.501 299.817C181.604 298.401 182.708 296.985 183.811 295.569C183.519 297.871 182.994 300.14 182.283 302.349C184.623 305.738 186.837 309.252 188.893 312.848C190.519 310.314 192.145 307.78 193.771 305.245C193.217 308.69 191.942 312.01 190.08 314.96C194.48 322.964 198.083 331.3 200.502 339.444C207.386 328.506 207.582 313.707 200.99 302.591Z" fill="#00656C"/>
<path d="M469.477 238.359C482.206 256.803 487.585 279.524 488.473 301.916C489.362 324.309 486.031 346.63 482.693 368.79L501.402 375.155C502.41 351.292 503.413 327.281 500.243 303.608C497.073 279.935 489.474 256.375 474.847 237.493L469.477 238.359Z" fill="#978093"/>
<path d="M501.402 375.156L482.693 368.791C483.366 364.325 484.036 359.853 484.674 355.374C491.129 353.535 497.191 350.326 502.344 346.025C502.216 355.738 501.812 365.459 501.402 375.156Z" fill="#645B79"/>
<path d="M469.477 238.359L474.848 237.493C480.708 245.058 485.424 253.382 489.195 262.155C485.993 260.217 482.706 258.421 479.347 256.769C476.717 250.308 473.456 244.125 469.477 238.359Z" fill="#645B79"/>
<path d="M491.115 347.167C492.088 338.967 493.42 328.515 493.94 317.996C494.513 307.48 494.271 296.946 494.152 288.689C496.853 296.483 498.455 307.358 497.86 318.199C497.329 329.044 494.609 339.695 491.115 347.167Z" fill="#CEB49D"/>
<path d="M491.03 301.576C490.738 297.364 490.428 291.982 489.726 286.64C489.05 281.295 487.986 276.011 487.201 271.862C489.247 275.551 491.024 280.878 491.717 286.384C492.442 291.885 492.074 297.489 491.03 301.576Z" fill="#CEB49D"/>
<path d="M497.325 261.512C490.65 254.211 482.984 246.564 474.425 238.839C491.76 242.664 507.473 253.451 516.016 265.118C523.565 275.426 526.937 288.264 524.972 298.86C522.715 294.686 520.047 290.372 517.014 285.964C517.136 283.738 517.256 281.539 517.376 279.368C516.848 280.944 516.311 282.549 515.763 284.185C514.398 282.253 512.961 280.297 511.449 278.318C511.615 275.754 511.608 273.156 511.408 270.529C510.736 272.185 510.05 273.876 509.349 275.604C506.472 271.961 503.34 268.226 499.967 264.432C499.532 262.045 499.098 259.661 498.664 257.281C498.223 258.671 497.777 260.082 497.325 261.512Z" fill="#00C6C1"/>
<path d="M517.83 239.724C531.058 247.131 540.534 262.775 541.805 280.749C537.333 276.282 531.621 271.799 525.451 267.534C524.174 262.758 522.306 258.299 519.922 254.319C519.788 257.365 519.652 260.452 519.514 263.58C514.647 260.45 509.646 257.484 504.841 254.778C502.999 250.612 501.192 246.525 499.42 242.517C499.415 245.561 499.41 248.648 499.405 251.778C485.708 244.365 474.602 239.432 474.602 239.432C488.603 232.023 505.124 232.609 517.83 239.724Z" fill="#009F9A"/>
<path d="M532.126 216.063C527.615 216.199 522.923 217.053 518.195 218.373C516.211 216.985 514.174 215.753 512.127 214.713C513.254 216.188 514.388 217.671 515.528 219.163C513.926 219.666 512.321 220.219 510.72 220.81C509.164 219.56 507.607 218.309 506.047 217.056C506.816 218.571 507.659 220.098 508.568 221.628C491.211 228.421 474.654 239.415 474.654 239.415C486.593 192.843 532.126 216.063 532.126 216.063Z" fill="#00C6C1"/>
<path d="M380.184 233.568C380.184 233.568 428.192 193.291 474.617 239.427C474.617 239.427 458.633 235.874 437.793 233.585C438.533 231.761 439.272 229.936 440.012 228.112C438.057 229.631 436.276 231.367 434.675 233.255C429.347 232.716 423.749 232.273 418.055 231.998C419.938 228.911 422.222 226.068 424.839 223.572C421.227 226.032 417.841 228.817 414.701 231.856C402.952 231.434 390.944 231.786 380.184 233.568Z" fill="#009F9A"/>
<path d="M408.464 284.778C408.228 269.014 416.415 253.369 429.502 244.578C442.589 235.787 460.127 233.245 474.631 239.424C474.631 239.424 467.314 243.298 457.301 249.22C457.002 247.117 456.934 244.981 457.149 242.867C456.037 245.679 454.925 248.49 453.813 251.302C449.233 254.06 444.245 257.165 439.224 260.468C438.437 257.79 437.65 255.111 436.864 252.432C436.474 255.895 436.083 259.358 435.693 262.821C425.238 269.881 415.025 277.648 408.464 284.778Z" fill="#00C6C1"/>
<path d="M448.124 276.611C449.256 260.637 459.901 245.704 474.631 239.423C472.358 246.585 470.568 254.264 469.282 262.165C467.274 261.209 465.265 260.253 463.257 259.297C464.859 261.685 466.699 263.907 468.713 265.959C468.002 271.013 467.5 276.133 467.218 281.258C464.01 279.353 460.802 277.449 457.594 275.544C460.119 279.053 463.375 282.024 467.075 284.258C466.643 295.567 467.279 306.802 469.12 317.166C455.423 308.871 446.992 292.585 448.124 276.611Z" fill="#009F9A"/>
<path d="M448.589 366.267C417.528 376.614 384.439 380.889 351.77 378.708C338.095 377.795 325.39 375.052 311.611 376.61C298.308 378.114 285.333 381.627 272.143 383.812C255.252 386.611 237.209 386.714 221.667 378.692C207.171 371.21 189.635 367.228 173.414 364.609C148.904 360.651 123.366 363.646 100.311 372.824C101.194 375.43 102.139 378.008 103.119 380.568C112.203 376.424 121.76 373.316 131.551 371.358C135.855 370.497 140.383 369.866 144.577 371.16C148.771 372.454 152.512 376.191 152.444 380.58C152.35 386.684 145.713 390.303 139.955 392.333C134.197 394.363 127.423 397.103 126.204 403.086C125.402 407.018 127.571 411.141 130.814 413.506C134.056 415.871 138.177 416.723 142.188 416.872C164.588 417.707 182.947 399.217 204.733 393.941C221.213 389.951 238.475 393.779 255.428 393.435C286.313 392.807 313.165 378.153 344.211 386.356C362.355 391.15 379.362 399.613 397.482 404.497C403.081 406.006 408.923 407.175 414.656 406.301C419.496 405.563 424.945 403.121 427.715 398.93C429.938 395.566 429.913 390.449 426.725 387.98C425.535 387.059 424.055 386.592 422.807 385.752C421.558 384.912 420.501 383.444 420.881 381.988C421.199 380.772 422.388 380.013 423.52 379.467C430.92 375.895 440.713 376.627 448.11 379.965C452.486 381.94 456.468 384.933 461.158 385.957C474.866 388.95 485.98 374.629 499.516 370.934C502.353 370.16 505.296 369.946 508.206 370.2C508.787 368.41 509.345 366.61 509.88 364.8C489.733 359.506 467.049 360.118 448.589 366.267Z" fill="#FFD557"/>
<path d="M499.515 370.936C485.979 374.631 474.865 388.952 461.157 385.959C456.467 384.935 452.485 381.942 448.109 379.967C440.712 376.628 430.919 375.897 423.519 379.469C422.387 380.015 421.198 380.774 420.88 381.99C420.5 383.446 421.557 384.914 422.806 385.754C424.055 386.594 425.535 387.061 426.724 387.982C429.912 390.45 429.937 395.568 427.714 398.932C424.944 403.123 419.495 405.565 414.655 406.303C408.922 407.177 403.08 406.008 397.481 404.499C379.361 399.615 362.355 391.152 344.21 386.358C313.164 378.155 286.312 392.809 255.427 393.437C238.474 393.782 221.212 389.953 204.732 393.943C182.946 399.218 164.587 417.709 142.187 416.874C138.177 416.724 134.055 415.873 130.813 413.508C127.571 411.143 125.402 407.02 126.203 403.088C127.423 397.106 134.197 394.366 139.954 392.335C145.712 390.305 152.348 386.686 152.443 380.582C152.511 376.193 148.77 372.456 144.576 371.162C140.382 369.868 135.854 370.5 131.55 371.36C121.759 373.318 112.202 376.426 103.118 380.57C134.012 461.32 212.218 518.669 303.83 518.669C399.317 518.669 480.239 456.368 508.204 370.203C505.296 369.948 502.352 370.161 499.515 370.936Z" fill="#FFB25B"/>
<path d="M242.666 507.587C230.046 505.26 217.14 508.154 204.415 509.815C191.69 511.476 177.529 510.532 166.722 503.612C172.871 503.959 178.889 501.888 184.568 499.505C190.247 497.123 195.854 494.376 201.909 493.249C207.964 492.122 214.707 492.846 219.434 496.794C224.929 501.383 236.182 504.554 242.666 507.587Z" fill="#FFB25B"/>
<path d="M240.973 519.711C239.734 519.469 238.451 519.436 237.25 519.048C234.476 518.152 232.604 515.542 229.994 514.245C227.303 512.908 224.054 513.109 221.223 514.115C218.392 515.121 215.889 516.86 213.424 518.578C211.491 519.926 208.611 521.607 208.611 523.758C208.611 525.981 216.856 527.783 227.028 527.783C237.199 527.783 245.445 525.981 245.445 523.758C245.445 521.717 242.212 519.953 240.973 519.711Z" fill="#FFB25B"/>
<path d="M243.808 515.307C250.43 519.202 259.016 517.984 265.92 521.353C268.815 522.766 271.313 524.942 274.31 526.122C277.307 527.302 281.237 527.16 283.156 524.572C284.704 522.484 284.382 519.442 283.018 517.229C281.654 515.016 279.448 513.47 277.233 512.108C268.003 506.432 257.501 502.854 246.736 501.652C243.705 501.314 236.948 499.95 236.35 504.461C235.811 508.53 240.697 513.477 243.808 515.307Z" fill="#FFB25B"/>
<path d="M299.206 525.492C299.206 526.757 296.576 527.782 293.331 527.782C290.086 527.782 287.456 526.757 287.456 525.492C287.456 524.227 290.086 523.202 293.331 523.202C296.576 523.202 299.206 524.227 299.206 525.492Z" fill="#FFB25B"/>
<path d="M269.206 528.015C269.206 528.947 267.2 529.703 264.727 529.703C262.253 529.703 260.248 528.948 260.248 528.015C260.248 527.083 262.254 526.327 264.727 526.327C267.201 526.327 269.206 527.083 269.206 528.015Z" fill="#FFB25B"/>
<path d="M276.706 532.578C278.57 532.578 280.081 531.934 280.081 531.14C280.081 530.346 278.57 529.702 276.706 529.702C274.842 529.702 273.331 530.346 273.331 531.14C273.331 531.934 274.842 532.578 276.706 532.578Z" fill="#FFB25B"/>
<path d="M204.694 517.278C204.694 519.081 200.695 520.542 195.762 520.542C190.829 520.542 186.83 519.081 186.83 517.278C186.83 515.475 190.829 514.014 195.762 514.014C200.695 514.014 204.694 515.475 204.694 517.278Z" fill="#FFB25B"/>
<path d="M183.644 515.203C185.405 515.203 186.832 514.615 186.832 513.89C186.832 513.165 185.405 512.577 183.644 512.577C181.883 512.577 180.456 513.165 180.456 513.89C180.456 514.615 181.883 515.203 183.644 515.203Z" fill="#FFB25B"/>
<path d="M202.706 524.827C204.156 524.827 205.331 524.323 205.331 523.702C205.331 523.081 204.156 522.577 202.706 522.577C201.256 522.577 200.081 523.081 200.081 523.702C200.081 524.323 201.256 524.827 202.706 524.827Z" fill="#FFB25B"/>
<path d="M180.719 422.984C178.562 424.354 177.057 427.112 177.958 429.504C178.681 431.422 180.743 432.572 182.779 432.809C184.815 433.045 186.856 432.535 188.842 432.028C190.989 431.481 193.215 430.894 194.916 429.474C196.617 428.054 197.624 425.541 196.633 423.559C194.209 418.71 184.259 420.735 180.719 422.984Z" fill="#EF973F"/>
<path d="M193.559 410.602C194.032 410.882 194.6 410.94 195.148 410.991C196.062 411.077 196.977 411.162 197.891 411.248C198.316 411.288 198.753 411.327 199.161 411.205C199.57 411.083 199.949 410.761 200.005 410.338C200.083 409.75 199.545 409.27 199.023 408.989C197.808 408.336 196.193 408.091 194.817 408.158C193.535 408.221 191.886 409.611 193.559 410.602Z" fill="#EF973F"/>
<path d="M224.173 456.667C225.263 457.509 226.748 457.56 228.125 457.577C230.157 457.601 232.452 457.518 233.823 456.018C236.865 452.689 232.23 448.411 228.731 449.035C225.696 449.576 220.012 453.454 224.173 456.667Z" fill="#EF973F"/>
<path d="M217.269 464.953C219.375 464.953 221.082 464.197 221.082 463.265C221.082 462.333 219.375 461.577 217.269 461.577C215.163 461.577 213.456 462.333 213.456 463.265C213.456 464.197 215.163 464.953 217.269 464.953Z" fill="#EF973F"/>
<path d="M244.098 446.765C244.098 447.421 243.003 447.953 241.652 447.953C240.301 447.953 239.206 447.421 239.206 446.765C239.206 446.109 240.301 445.577 241.652 445.577C243.003 445.577 244.098 446.109 244.098 446.765Z" fill="#EF973F"/>
<path d="M217.956 445.574C217.956 446.232 216.756 446.764 215.276 446.764C213.796 446.764 212.596 446.231 212.596 445.574C212.596 444.917 213.796 444.384 215.276 444.384C216.756 444.384 217.956 444.917 217.956 445.574Z" fill="#EF973F"/>
<path d="M283.519 464.953C287.282 464.953 290.332 463.638 290.332 462.015C290.332 460.392 287.282 459.077 283.519 459.077C279.756 459.077 276.706 460.392 276.706 462.015C276.706 463.638 279.756 464.953 283.519 464.953Z" fill="#EF973F"/>
<path d="M305.095 455.429C305.095 456.617 303.469 457.581 301.463 457.581C299.457 457.581 297.831 456.618 297.831 455.429C297.831 454.241 299.457 453.277 301.463 453.277C303.469 453.277 305.095 454.24 305.095 455.429Z" fill="#EF973F"/>
<path d="M260.919 472.98C261.562 473.431 262.389 473.647 263.154 473.47C263.919 473.293 264.594 472.689 264.765 471.922C265.188 470.026 262.782 468.709 261.161 469.114C259.214 469.6 259.542 472.015 260.919 472.98Z" fill="#EF973F"/>
<path d="M281.998 448.323C281.998 448.965 281.177 449.486 280.165 449.486C279.152 449.486 278.332 448.965 278.332 448.323C278.332 447.681 279.153 447.16 280.165 447.16C281.177 447.161 281.998 447.681 281.998 448.323Z" fill="#EF973F"/>
<path d="M411.355 454.854C410.361 455.974 409.294 457.406 409.769 458.826C410.112 459.851 411.204 460.479 412.279 460.591C413.354 460.703 414.425 460.397 415.458 460.076C417.77 459.359 420.079 458.54 422.11 457.223C425.513 455.016 429.69 449.007 424.116 446.721C418.425 444.387 414.468 451.35 411.355 454.854Z" fill="#EF973F"/>
<path d="M433.661 452.562C434.485 453.183 435.663 452.769 436.562 452.263C438.535 451.153 441.918 446.624 437.55 446.534C435.206 446.485 430.948 450.516 433.661 452.562Z" fill="#EF973F"/>
<path d="M435.452 434.202C436.952 433.76 438.452 433.318 439.952 432.876C440.369 432.753 440.796 432.625 441.137 432.356C443.613 430.409 436.609 429.376 435.246 429.822C432.422 430.746 431.3 435.426 435.452 434.202Z" fill="#EF973F"/>
<path d="M372.964 489.495C372.377 489.847 371.743 490.258 371.55 490.915C371.309 491.736 371.904 492.621 372.679 492.982C373.455 493.343 374.352 493.302 375.203 493.209C378.732 492.821 382.17 491.635 385.188 489.765C386.82 488.754 389.158 487.002 389.132 484.835C389.113 483.222 387.637 482.514 386.193 482.475C383.97 482.415 382.043 484.046 380.237 485.13C377.813 486.585 375.389 488.04 372.964 489.495Z" fill="#EF973F"/>
<path d="M359.113 487.53C359.186 487.924 359.566 488.201 359.959 488.28C360.351 488.359 360.756 488.279 361.148 488.2C362.204 487.987 367.841 487.311 365.048 485.536C363.714 484.688 358.713 485.361 359.113 487.53Z" fill="#EF973F"/>
<path d="M392.179 472.284C392.478 472.748 391.473 473.928 389.935 474.918C388.397 475.908 386.907 476.335 386.609 475.87C386.31 475.406 387.315 474.226 388.853 473.236C390.391 472.246 391.88 471.82 392.179 472.284Z" fill="#EF973F"/>
<path d="M292.726 504.274C291.645 504.475 290.255 505.108 290.496 506.181C290.669 506.953 291.599 507.244 292.379 507.382C297.052 508.208 312.819 511.79 313.544 503.771C314.094 497.704 296.532 503.565 292.726 504.274Z" fill="#EF973F"/>
<path d="M326.956 505.577C328.82 505.577 330.331 504.906 330.331 504.077C330.331 503.249 328.82 502.577 326.956 502.577C325.092 502.577 323.581 503.249 323.581 504.077C323.581 504.906 325.092 505.577 326.956 505.577Z" fill="#EF973F"/>
<path d="M318.736 497.703C320.478 497.703 321.89 497.059 321.89 496.265C321.89 495.471 320.478 494.827 318.736 494.827C316.994 494.827 315.582 495.471 315.582 496.265C315.582 497.059 316.994 497.703 318.736 497.703Z" fill="#EF973F"/>
<path d="M384.607 419.018C385.197 419.48 385.798 419.954 386.206 420.583C386.614 421.212 386.801 422.034 386.499 422.72C386.039 423.762 384.714 424.069 383.575 424.084C380.978 424.119 373.049 422.268 374.61 418.164C376.239 413.88 382.494 417.363 384.607 419.018Z" fill="#EF973F"/>
<path d="M376.257 412.272C376.71 412.35 377.163 412.429 377.618 412.491C378.161 412.565 378.817 412.569 379.135 412.123C379.353 411.817 379.322 411.383 379.139 411.054C378.956 410.726 378.646 410.487 378.324 410.293C377.391 409.732 375.299 409.012 374.352 409.921C373.076 411.147 375.341 412.113 376.257 412.272Z" fill="#EF973F"/>
<path d="M453.138 401.399C452.603 401.632 452.076 401.923 451.697 402.367C451.318 402.811 451.107 403.433 451.274 403.992C451.446 404.568 451.983 404.976 452.557 405.154C453.131 405.333 453.744 405.319 454.345 405.305C456.664 405.248 458.984 405.19 461.303 405.133C461.775 405.121 462.269 405.104 462.681 404.873C463.405 404.468 463.652 403.469 463.362 402.692C463.071 401.915 462.354 401.359 461.578 401.066C460.329 400.594 458.913 400.698 457.603 400.617C456.081 400.524 454.536 400.79 453.138 401.399Z" fill="#EF973F"/>
<path d="M445.004 398.954C445.184 399.258 445.534 399.43 445.884 399.479C446.234 399.529 446.589 399.473 446.938 399.418C447.705 399.296 448.472 399.175 449.239 399.053C449.487 399.014 449.739 398.973 449.966 398.864C450.193 398.755 450.394 398.566 450.457 398.323C450.552 397.954 450.297 397.567 449.962 397.384C449.396 397.074 448.678 397.167 448.058 397.092C447.635 397.041 447.208 396.889 446.778 396.914C445.889 396.966 444.366 397.88 445.004 398.954Z" fill="#EF973F"/>
<path d="M469.349 407.697C469.795 407.932 470.33 407.961 470.821 407.849C471.006 407.807 471.193 407.742 471.333 407.613C472.37 406.652 470.587 405.206 469.625 405.252C468.244 405.319 468.303 407.147 469.349 407.697Z" fill="#EF973F"/>
<path d="M467.876 401.708C468.26 402.001 468.869 401.935 469.182 401.568C469.495 401.2 469.462 400.589 469.112 400.257C468.129 399.324 466.807 400.893 467.876 401.708Z" fill="#EF973F"/>
<path d="M149.512 434.442C149.935 434.754 150.397 435.134 150.432 435.658C150.464 436.136 150.102 436.572 149.665 436.767C149.228 436.962 148.731 436.963 148.253 436.932C145.568 436.759 137.888 434.133 139.333 430.196C140.797 426.211 147.828 433.2 149.512 434.442Z" fill="#EF973F"/>
<path d="M147.617 424.906C146.466 423.313 143.402 424.147 144.564 426.238C145.63 428.154 149.023 426.853 147.617 424.906Z" fill="#EF973F"/>
<path d="M432.987 412.662C410.901 417.801 391.11 429.136 372.069 440.789C353.028 452.442 334.085 464.698 312.728 472.052C286.156 481.201 257.021 482.28 228.91 479.084C206.388 476.523 184.348 471.316 162.475 465.597C167.948 470.384 173.667 474.895 179.608 479.114C209.549 486.109 239.781 492.144 270.466 492.825C306.997 493.636 344.662 486.323 374.892 465.797C387.562 457.194 398.647 446.489 410.681 437.016C422.715 427.543 436.122 419.13 451.161 416.236C462.217 414.108 474.306 415.457 484.027 420.817C485.047 419.249 486.054 417.671 487.034 416.074C470.578 408.94 450.823 408.512 432.987 412.662Z" fill="#FFD557"/>
<path d="M192.594 239.213C173.595 302.486 192.088 395.243 233.901 446.391C235.927 448.87 238.135 449.871 240.066 449.486L197.101 233.99C195.17 234.375 193.515 236.147 192.594 239.213Z" fill="#8D415F"/>
<path d="M203.267 237.085C201.24 234.606 199.033 233.605 197.101 233.99L240.066 449.486C241.997 449.101 243.652 447.329 244.573 444.263C263.573 380.99 245.08 288.234 203.267 237.085Z" fill="#D46571"/>
<path d="M233.86 400.455C236.182 412.1 236.527 421.846 234.631 422.224C232.735 422.602 229.316 413.468 226.995 401.823C224.674 390.178 224.328 380.432 226.224 380.054C228.119 379.677 231.538 388.81 233.86 400.455Z" fill="#E8936B"/>
<path d="M216.671 430.127C223.215 430.038 229.256 426.638 235.821 426.993C238.26 427.125 240.731 427.578 243.128 427.976C245.341 428.344 247.592 428.014 249.796 428.126C248.524 434.262 247.308 440.833 245.122 446.706C244.385 448.685 243.481 450.788 241.66 451.859C240.193 452.722 238.344 452.747 236.713 452.261C235.082 451.774 233.631 450.823 232.263 449.809C225.583 444.856 219.835 437.818 216.671 430.127Z" fill="#FFB25B"/>
<path d="M425.99 371.542C430.344 344.28 411.773 318.65 384.51 314.296C357.247 309.942 331.617 328.514 327.264 355.776C322.91 383.039 341.481 408.669 368.744 413.022C396.006 417.376 421.636 398.805 425.99 371.542Z" fill="#FBEED1"/>
<path d="M392.781 316.366C398.986 325.741 403.172 343.407 403.172 363.672C403.172 383.937 398.986 401.603 392.781 410.978C401.005 408.171 408.264 403.288 413.927 396.943C419.651 387.741 423.066 376.206 423.066 363.673C423.066 351.14 419.651 339.605 413.927 330.403C408.264 324.057 401.005 319.174 392.781 316.366Z" fill="#E8916A"/>
<path d="M362.032 363.672C362.032 341.323 367.121 322.129 374.398 313.74C367.2 314.057 360.402 315.899 354.309 318.946C342.931 328.779 335.477 345.139 335.477 363.672C335.477 382.205 342.931 398.565 354.309 408.398C360.402 411.445 367.2 413.287 374.398 413.604C367.121 405.216 362.032 386.021 362.032 363.672Z" fill="#E8916A"/>
<path d="M426.004 371.499C424.765 373.556 423.306 375.487 421.686 377.272C420.183 384.523 417.507 391.189 413.927 396.943C413.253 397.698 412.553 398.429 411.835 399.142C419.206 391.824 424.316 382.232 426.004 371.499Z" fill="#F7DD8C"/>
<path d="M336.323 374.304C332.143 369.367 328.913 363.652 327.032 357.527C326.785 359.542 326.643 361.59 326.643 363.672C326.643 383.255 337.91 400.197 354.31 408.398C345.166 400.496 338.566 388.376 336.323 374.304Z" fill="#F7DD8C"/>
<path d="M421.686 377.272C420.376 378.714 418.963 380.062 417.459 381.286C412.51 385.313 406.698 388.137 400.588 390.04C398.756 398.765 396.054 406.033 392.781 410.978C397.892 409.233 402.629 406.685 406.843 403.484C406.885 403.452 406.927 403.421 406.969 403.389C408.596 402.145 410.142 400.802 411.602 399.371C411.68 399.295 411.758 399.219 411.835 399.142C412.553 398.429 413.253 397.698 413.927 396.943C417.507 391.189 420.183 384.523 421.686 377.272Z" fill="#CC6164"/>
<path d="M348.944 385.04C344.19 382.204 339.908 378.539 336.322 374.304C338.566 388.376 345.165 400.496 354.308 408.398C360.401 411.445 367.199 413.287 374.397 413.604C370.424 409.024 367.106 401.218 364.909 391.44C359.304 390.113 353.906 388 348.944 385.04Z" fill="#CC6164"/>
<path d="M400.589 390.04C398.311 390.749 395.996 391.341 393.663 391.804C384.205 393.683 374.268 393.656 364.911 391.44C367.108 401.217 370.426 409.024 374.399 413.604C375.14 413.637 375.883 413.66 376.631 413.66C382.286 413.66 387.719 412.717 392.786 410.984L392.782 410.977C396.055 406.032 398.757 398.764 400.589 390.04Z" fill="#F7DD8C"/>
<path d="M402.487 328.333C402.188 328.333 401.887 328.244 401.625 328.06C396.405 324.389 390.582 321.961 384.316 320.844C383.501 320.698 382.958 319.92 383.103 319.104C383.248 318.288 384.027 317.753 384.843 317.891C391.542 319.085 397.77 321.681 403.351 325.607C404.029 326.084 404.191 327.019 403.714 327.697C403.422 328.111 402.958 328.333 402.487 328.333Z" fill="white"/>
<path d="M344.104 334.068C343.731 334.068 343.358 333.93 343.067 333.652C342.468 333.08 342.448 332.13 343.02 331.531C351.88 322.268 363.817 317.168 376.63 317.168C377.458 317.168 378.13 317.84 378.13 318.668C378.13 319.496 377.458 320.168 376.63 320.168C364.643 320.168 353.477 324.94 345.188 333.606C344.893 333.913 344.498 334.068 344.104 334.068Z" fill="white"/>
<path d="M334.225 350.065C334.058 350.065 333.888 350.038 333.721 349.978C332.941 349.7 332.533 348.842 332.812 348.061C333.912 344.975 335.346 341.997 337.075 339.207C337.511 338.502 338.438 338.287 339.14 338.722C339.844 339.158 340.061 340.083 339.625 340.787C338.007 343.396 336.666 346.182 335.638 349.069C335.419 349.682 334.841 350.065 334.225 350.065Z" fill="white"/>
<path d="M402.302 408.39C399.376 410.194 395.698 410.266 392.298 409.767C388.897 409.269 385.566 408.259 382.133 408.088C377.177 407.842 372.325 409.354 367.42 410.099C362.514 410.844 357.064 410.679 353.18 407.59C356.45 411.524 361.236 413.696 366.282 414.544C372.424 415.576 378.714 415.931 384.89 415.127C391.065 414.323 397.09 411.8 402.302 408.39Z" fill="#FFB25B"/>
<path d="M327.276 363.672H321.781V352.786C321.781 350.555 319.965 348.74 317.734 348.74H289.743C287.512 348.74 285.697 350.555 285.697 352.786V363.672H280.202V352.786C280.202 347.525 284.482 343.245 289.743 343.245H317.734C322.996 343.245 327.276 347.525 327.276 352.786V363.672Z" fill="#645B79"/>
<path d="M285.696 357.735H280.201V363.673H285.696V357.735Z" fill="#514B63"/>
<path d="M327.276 357.735H321.781V363.673H327.276V357.735Z" fill="#514B63"/>
<path d="M355.941 439.955H251.535C248.171 439.955 245.445 437.228 245.445 433.865V367.379C245.445 364.015 248.172 361.289 251.535 361.289H355.941C359.305 361.289 362.031 364.016 362.031 367.379V433.865C362.032 437.228 359.305 439.955 355.941 439.955Z" fill="#978093"/>
<path d="M254.009 360.19H251.536C247.572 360.19 244.347 363.415 244.347 367.379V369.036H254.009V360.19Z" fill="#645B79"/>
<path d="M363.13 369.035V367.378C363.13 363.415 359.905 360.189 355.941 360.189H353.467V369.035H363.13Z" fill="#645B79"/>
<path d="M353.468 441.054H355.942C359.906 441.054 363.131 437.829 363.131 433.864V432.208H353.469V441.054H353.468Z" fill="#645B79"/>
<path d="M244.346 432.208V433.864C244.346 437.829 247.571 441.054 251.535 441.054H254.008V432.208H244.346Z" fill="#645B79"/>
<path d="M285.586 360.738H274.23V440.504H285.586V360.738Z" fill="#645B79"/>
<path d="M333.246 360.738H321.89V440.504H333.246V360.738Z" fill="#645B79"/>
<path d="M365.444 441.482C362.735 437.988 357.756 437.191 353.352 437.579C348.948 437.967 344.587 439.263 340.183 438.881C335.49 438.474 331.138 436.189 326.467 435.579C317.5 434.409 308.617 439.504 299.635 438.455C294.381 437.841 289.472 435.148 284.183 435.021C278.155 434.875 272.502 438.075 266.485 438.462C262.622 438.71 258.787 437.788 254.923 437.56C251.059 437.332 246.843 437.949 244.098 440.678L247.872 442.984H363.13L365.444 441.482Z" fill="#FFB25B"/>
<path d="M245.445 444.325C281.23 444.325 310.239 441.022 310.239 436.948C310.239 432.874 281.23 429.571 245.445 429.571C209.66 429.571 180.651 432.874 180.651 436.948C180.651 441.022 209.66 444.325 245.445 444.325Z" fill="#FBEED1"/>
<path d="M215.965 428.679C215.841 429.782 215.771 430.901 215.771 432.037V435.015C215.771 436.881 229.057 438.394 245.446 438.394C261.835 438.394 275.121 436.881 275.121 435.015V432.037C275.121 430.901 275.051 429.782 274.927 428.679C273.258 430.365 260.7 431.675 245.447 431.675C230.192 431.676 217.633 430.365 215.965 428.679Z" fill="#D46571"/>
<path d="M245.445 402.363C230.192 402.363 217.633 413.873 215.965 428.68C217.633 430.366 230.192 431.676 245.445 431.676C260.698 431.676 273.257 430.366 274.925 428.68C273.256 413.873 260.698 402.363 245.445 402.363Z" fill="#FBEED1"/>
<path d="M269.413 427.658C270.531 427.035 271.943 426.483 273.032 427.156C274.118 427.826 274.261 429.369 273.961 430.61C273.662 431.85 273.044 433.035 273.044 434.311C273.043 435.461 273.545 436.545 273.784 437.67C274.024 438.795 273.916 440.147 272.996 440.837C271.894 441.664 270.335 441.1 269.089 440.513C267.563 439.794 266.036 439.074 264.51 438.355C263.658 437.954 262.784 437.536 262.148 436.841C260.321 434.845 261.919 433.279 263.443 431.914C265.268 430.28 267.273 428.849 269.413 427.658Z" fill="#D46571"/>
<path d="M262.225 433.114C262.182 433.803 262.337 434.504 262.724 435.078C263.255 435.864 264.102 436.371 264.934 436.826C266.402 437.628 267.913 438.35 269.459 438.988C269.948 439.19 270.449 439.385 270.976 439.427C271.503 439.469 272.067 439.337 272.441 438.963C273.005 438.398 272.978 437.468 272.735 436.708C272.492 435.948 272.074 435.237 271.965 434.447C271.817 433.368 272.268 432.301 272.781 431.341C273.249 430.466 273.772 429.597 274.005 428.639C274.147 429.272 274.111 429.979 273.959 430.61C273.66 431.85 273.042 433.035 273.042 434.311C273.041 435.461 273.543 436.545 273.782 437.67C274.022 438.795 273.914 440.147 272.994 440.837C271.892 441.664 270.333 441.1 269.087 440.513C267.561 439.794 266.034 439.074 264.508 438.355C263.656 437.954 262.782 437.535 262.146 436.841C260.835 435.403 261.296 434.19 262.225 433.114Z" fill="#8D415F"/>
<path d="M254.287 431.52C255.03 431.498 255.767 431.778 256.505 431.693C257.565 431.571 258.427 430.724 259.482 430.563C260.73 430.373 261.965 431.235 262.536 432.362C263.107 433.488 263.131 434.814 262.983 436.068C262.919 436.607 262.823 437.152 262.571 437.632C262.319 438.112 261.888 438.524 261.357 438.636C260.936 438.725 260.502 438.621 260.076 438.559C259.038 438.41 257.964 438.52 256.978 438.878C256.198 439.161 255.395 439.604 254.59 439.405C254.071 439.277 253.644 438.89 253.363 438.435C253.082 437.98 252.929 437.459 252.797 436.941C252.479 435.692 252.286 434.418 252.132 433.141C252.011 432.127 253.442 431.545 254.287 431.52Z" fill="#D46571"/>
<path d="M262.702 432.798C262.887 433.659 262.903 434.554 262.713 435.414C262.618 435.842 262.466 436.279 262.148 436.581C261.83 436.883 261.306 437.005 260.944 436.757C260.485 436.443 260.509 435.778 260.469 435.224C260.39 434.137 259.774 433.036 258.937 432.338C259.319 433.156 259.605 434.053 259.512 434.951C259.419 435.849 258.876 436.744 258.022 437.041C257.771 436.779 257.687 436.4 257.661 436.039C257.635 435.677 257.657 435.31 257.575 434.956C257.493 434.603 257.23 434.109 256.887 433.989C257.297 434.861 257.287 435.919 256.861 436.783C256.772 436.963 256.662 437.139 256.5 437.258C256.338 437.377 256.114 437.428 255.932 437.344C255.736 437.254 255.631 437.029 255.615 436.814C255.6 436.598 255.657 436.386 255.703 436.174C255.906 435.244 255.842 434.156 255.15 433.503C254.439 432.832 253.256 432.867 252.427 433.386C252.341 433.44 252.272 433.513 252.193 433.574C252.338 434.705 252.514 435.833 252.796 436.94C252.928 437.458 253.081 437.979 253.362 438.434C253.643 438.889 254.07 439.276 254.589 439.404C255.394 439.602 256.198 439.16 256.977 438.877C257.963 438.519 259.037 438.409 260.075 438.558C260.501 438.619 260.935 438.723 261.356 438.635C261.887 438.523 262.318 438.112 262.57 437.631C262.822 437.151 262.918 436.605 262.982 436.067C263.113 434.97 263.088 433.824 262.702 432.798Z" fill="#8D415F"/>
<path d="M245.82 429.19C244.63 428.717 243.159 428.352 242.166 429.16C241.176 429.965 241.234 431.514 241.691 432.705C242.148 433.896 242.914 434.991 243.079 436.256C243.229 437.396 242.871 438.536 242.779 439.682C242.687 440.828 242.968 442.155 243.97 442.72C245.169 443.397 246.643 442.637 247.802 441.893C249.222 440.982 250.643 440.071 252.063 439.161C252.855 438.653 253.669 438.125 254.209 437.354C255.762 435.138 253.976 433.792 252.288 432.636C250.269 431.253 248.096 430.094 245.82 429.19Z" fill="#D46571"/>
<path d="M253.653 433.67C253.784 434.348 253.722 435.063 253.412 435.682C252.987 436.531 252.213 437.143 251.446 437.701C250.094 438.686 248.689 439.598 247.238 440.43C246.779 440.693 246.308 440.952 245.79 441.062C245.273 441.172 244.696 441.114 244.277 440.791C243.645 440.304 243.551 439.378 243.693 438.593C243.835 437.808 244.159 437.049 244.164 436.251C244.171 435.162 243.587 434.162 242.953 433.277C242.376 432.47 241.745 431.676 241.39 430.756C241.331 431.402 241.458 432.099 241.69 432.705C242.147 433.896 242.913 434.991 243.078 436.256C243.228 437.396 242.87 438.536 242.778 439.682C242.686 440.828 242.967 442.155 243.969 442.72C245.168 443.397 246.642 442.637 247.801 441.893C249.221 440.982 250.642 440.071 252.062 439.161C252.855 438.653 253.668 438.125 254.208 437.354C255.328 435.761 254.713 434.617 253.653 433.67Z" fill="#8D415F"/>
<path d="M250.957 408.707C250.875 408.707 250.792 408.7 250.708 408.686C249.549 408.493 248.359 408.38 247.171 408.353C246.343 408.333 245.687 407.646 245.707 406.818C245.727 405.99 246.388 405.354 247.242 405.353C248.572 405.384 249.904 405.51 251.203 405.727C252.02 405.864 252.572 406.636 252.435 407.454C252.312 408.188 251.677 408.707 250.957 408.707Z" fill="white"/>
<path d="M223.702 420.95C223.428 420.95 223.151 420.875 222.902 420.719C222.202 420.276 221.993 419.35 222.435 418.65C224.952 414.667 228.416 411.348 232.453 409.055C234.874 407.678 237.503 406.666 240.266 406.047C241.074 405.87 241.876 406.374 242.058 407.183C242.239 407.992 241.73 408.793 240.922 408.975C238.448 409.529 236.097 410.433 233.935 411.663C230.325 413.715 227.226 416.685 224.971 420.252C224.686 420.703 224.199 420.95 223.702 420.95Z" fill="white"/>
<path d="M308.467 418.352C307.512 424.377 308.086 430.528 308.663 436.602C308.992 440.066 309.329 443.569 310.474 446.855C311.619 450.141 313.672 453.239 316.703 454.947C319.734 456.655 323.828 456.697 326.51 454.48C329.032 452.396 329.835 448.932 330.489 445.727C332.184 437.418 333.878 429.11 335.573 420.801C336.256 417.453 336.939 413.979 336.171 410.649C335.326 406.982 332.647 403.787 329.184 402.314C317.562 397.371 310.061 408.299 308.467 418.352Z" fill="#00656C"/>
<path d="M319.276 402.948C322.186 401.647 325.396 401.725 328.817 403.18C332.01 404.538 334.477 407.481 335.256 410.861C335.992 414.051 335.281 417.537 334.653 420.613L329.569 445.539C328.897 448.831 328.112 451.938 325.912 453.755C325.49 454.104 325.015 454.398 324.499 454.628C322.316 455.604 319.438 455.408 317.166 454.127C314.631 452.698 312.57 450.006 311.363 446.545C310.249 443.348 309.919 439.873 309.599 436.512C309.036 430.579 308.453 424.444 309.395 418.499C310.798 409.657 315.594 404.596 319.276 402.948Z" fill="#009F9A"/>
<path d="M333.401 426.749L334.652 420.613C334.741 420.178 334.83 419.734 334.918 419.285C326.367 420.266 317.749 420.67 309.143 420.493C308.938 422.455 308.872 424.431 308.905 426.411C308.912 426.858 308.935 427.305 308.951 427.752C317.112 427.942 325.283 427.601 333.401 426.749Z" fill="#00C6C1"/>
<path d="M335.438 411.902C335.39 411.553 335.335 411.204 335.256 410.861C334.732 408.587 333.432 406.524 331.673 404.995C326.2 405.548 320.706 405.867 315.206 405.947C313.519 407.706 311.923 410.124 310.769 413.232C319.009 413.317 327.254 412.878 335.438 411.902Z" fill="#00C6C1"/>
<path d="M330.359 441.665L331.879 434.215C324.43 434.923 316.942 435.203 309.462 435.035C309.508 435.528 309.553 436.023 309.6 436.513C309.783 438.438 309.974 440.399 310.31 442.325C316.998 442.457 323.693 442.233 330.359 441.665Z" fill="#00C6C1"/>
<path d="M312.786 449.617C313.951 451.596 315.445 453.159 317.166 454.128C319.438 455.409 322.317 455.605 324.499 454.629C325.015 454.398 325.49 454.105 325.912 453.756C327.291 452.617 328.114 450.97 328.702 449.09C323.406 449.485 318.096 449.661 312.786 449.617Z" fill="#00C6C1"/>
<path d="M332.063 423.57C331.787 423.438 325.851 420.465 326.507 410.008C326.729 408.959 326.853 407.887 326.869 406.81C326.869 406.8 326.867 406.791 326.866 406.782C326.866 406.745 326.861 406.71 326.857 406.674C326.853 406.642 326.85 406.609 326.844 406.578C326.836 406.542 326.824 406.508 326.813 406.473C326.804 406.445 326.796 406.416 326.784 406.389C326.767 406.349 326.746 406.312 326.724 406.275C326.713 406.257 326.704 406.238 326.692 406.22C326.662 406.175 326.627 406.133 326.59 406.093C326.584 406.086 326.578 406.079 326.572 406.072C326.528 406.027 326.479 405.986 326.427 405.949L326.424 405.947C326.372 405.911 326.317 405.88 326.258 405.853C326.254 405.851 326.251 405.849 326.248 405.848C326.198 405.826 326.145 405.809 326.09 405.796C326.074 405.792 326.059 405.787 326.043 405.783C326.029 405.78 326.017 405.774 326.003 405.772C325.974 405.767 325.945 405.769 325.915 405.767C325.893 405.765 325.872 405.759 325.849 405.759C325.839 405.759 325.83 405.761 325.82 405.762C325.787 405.762 325.756 405.767 325.724 405.77C325.686 405.774 325.648 405.778 325.611 405.786C325.587 405.791 325.564 405.8 325.541 405.807C325.498 405.82 325.456 405.832 325.416 405.85C325.398 405.858 325.382 405.868 325.365 405.877C325.322 405.899 325.281 405.921 325.242 405.948C325.226 405.959 325.213 405.972 325.198 405.983C325.161 406.012 325.125 406.041 325.093 406.075C325.077 406.091 325.064 406.109 325.049 406.127C325.021 406.16 324.994 406.192 324.97 406.228C324.955 406.25 324.944 406.274 324.931 406.297C324.911 406.332 324.892 406.367 324.877 406.405C324.866 406.431 324.859 406.459 324.85 406.486C324.838 406.524 324.826 406.562 324.818 406.602C324.816 406.61 324.813 406.618 324.811 406.627C324.631 407.716 324.518 408.74 324.451 409.715C323.838 412.492 322.434 415.084 320.404 417.095C317.671 419.803 313.897 421.37 310.049 421.394C309.477 421.398 309.016 421.864 309.019 422.437C309.022 422.984 309.45 423.43 309.987 423.465C310.012 423.467 310.037 423.467 310.062 423.467C314.447 423.44 318.748 421.654 321.862 418.567C322.945 417.494 323.867 416.274 324.619 414.958C325.792 422.842 330.908 425.322 331.187 425.451C331.306 425.506 331.43 425.537 331.554 425.545C331.966 425.572 332.371 425.347 332.558 424.95C332.8 424.431 332.577 423.815 332.063 423.57Z" fill="#00656C"/>
<path d="M365.737 423.644C365.924 429.742 364.577 435.771 363.238 441.723C362.474 445.118 361.697 448.551 360.146 451.665C358.595 454.78 356.168 457.594 352.945 458.905C349.722 460.217 345.656 459.741 343.275 457.204C341.036 454.818 340.677 451.281 340.433 448.018C339.801 439.562 339.169 431.106 338.537 422.65C338.282 419.242 338.044 415.71 339.226 412.504C340.528 408.973 343.588 406.141 347.21 405.118C359.364 401.682 365.425 413.47 365.737 423.644Z" fill="#00656C"/>
<path d="M356.959 406.998C354.237 405.34 351.043 405.012 347.465 406.023C344.127 406.967 341.308 409.575 340.108 412.829C338.975 415.901 339.241 419.449 339.475 422.579L341.371 447.947C341.622 451.298 342.008 454.478 343.961 456.559C344.336 456.958 344.77 457.31 345.253 457.604C347.295 458.848 350.175 459.017 352.591 458.033C355.287 456.936 357.671 454.525 359.305 451.244C360.814 448.213 361.58 444.808 362.321 441.514C363.629 435.7 364.982 429.687 364.798 423.67C364.523 414.723 360.404 409.097 356.959 406.998V406.998Z" fill="#009F9A"/>
<path d="M339.942 428.825L339.475 422.58C339.442 422.138 339.409 421.685 339.379 421.229C347.738 423.282 356.236 424.771 364.795 425.682C364.751 427.654 364.566 429.623 364.284 431.582C364.22 432.025 364.141 432.465 364.069 432.906C355.95 432.066 347.888 430.695 339.942 428.825Z" fill="#00C6C1"/>
<path d="M339.797 413.84C339.888 413.499 339.987 413.161 340.109 412.83C340.916 410.64 342.466 408.758 344.404 407.464C349.763 408.703 355.174 409.714 360.619 410.488C362.071 412.445 363.348 415.046 364.101 418.274C355.915 417.318 347.791 415.841 339.797 413.84Z" fill="#00C6C1"/>
<path d="M341.076 444.005L340.509 436.422C347.809 438.065 355.202 439.288 362.643 440.067C362.535 440.55 362.428 441.035 362.32 441.516C361.896 443.402 361.458 445.324 360.882 447.192C354.231 446.478 347.617 445.411 341.076 444.005Z" fill="#00C6C1"/>
<path d="M357.505 454.113C356.1 455.929 354.42 457.291 352.591 458.035C350.176 459.018 347.295 458.85 345.253 457.606C344.77 457.312 344.336 456.961 343.961 456.561C342.737 455.257 342.129 453.52 341.783 451.58C346.986 452.641 352.232 453.486 357.505 454.113Z" fill="#00C6C1"/>
<path d="M341.671 425.84C341.961 425.744 348.226 423.544 348.895 413.088C348.807 412.019 348.82 410.941 348.939 409.87C348.94 409.86 348.944 409.852 348.945 409.842C348.95 409.806 348.959 409.771 348.968 409.736C348.976 409.704 348.983 409.672 348.993 409.642C349.005 409.607 349.021 409.574 349.037 409.541C349.05 409.514 349.061 409.487 349.076 409.462C349.098 409.425 349.124 409.391 349.15 409.357C349.163 409.34 349.175 409.322 349.189 409.307C349.225 409.266 349.265 409.229 349.307 409.194C349.314 409.188 349.32 409.181 349.327 409.176C349.377 409.137 349.43 409.102 349.487 409.072L349.49 409.07C349.546 409.04 349.605 409.017 349.667 408.998C349.671 408.997 349.674 408.995 349.678 408.994C349.731 408.979 349.785 408.969 349.841 408.962C349.857 408.96 349.873 408.957 349.89 408.955C349.904 408.954 349.917 408.95 349.931 408.949C349.961 408.948 349.989 408.953 350.019 408.955C350.041 408.956 350.063 408.953 350.085 408.955C350.095 408.956 350.104 408.96 350.114 408.961C350.146 408.966 350.177 408.974 350.208 408.981C350.245 408.99 350.283 408.998 350.318 409.011C350.341 409.019 350.363 409.03 350.385 409.04C350.426 409.058 350.466 409.076 350.503 409.099C350.519 409.109 350.534 409.121 350.55 409.132C350.589 409.159 350.628 409.187 350.663 409.218C350.677 409.231 350.689 409.245 350.702 409.259C350.735 409.292 350.767 409.326 350.795 409.363C350.809 409.381 350.82 409.401 350.832 409.42C350.855 409.456 350.879 409.492 350.898 409.53C350.91 409.554 350.918 409.579 350.928 409.604C350.943 409.641 350.958 409.678 350.968 409.718C350.975 409.745 350.979 409.774 350.984 409.802C350.991 409.842 350.998 409.881 351.001 409.921C351.002 409.93 351.004 409.938 351.005 409.946C351.046 411.049 351.029 412.079 350.973 413.055C351.231 415.887 352.296 418.636 354.056 420.887C356.425 423.919 359.971 425.95 363.785 426.46C364.352 426.536 364.751 427.057 364.675 427.624C364.602 428.166 364.123 428.554 363.585 428.521C363.56 428.519 363.535 428.517 363.51 428.514C359.164 427.933 355.123 425.618 352.423 422.163C351.485 420.962 350.723 419.635 350.144 418.235C347.984 425.908 342.597 427.722 342.304 427.814C342.179 427.854 342.052 427.868 341.928 427.861C341.516 427.836 341.143 427.562 341.007 427.144C340.832 426.601 341.13 426.018 341.671 425.84Z" fill="#00656C"/>
<path d="M306.489 448.309C312.58 445.379 319.636 445.197 326.359 445.89C333.083 446.583 339.725 448.091 346.479 448.337C355.067 448.65 363.724 446.878 371.499 443.216C369.438 447.694 366.94 452.659 362.696 455.168C359.211 457.228 354.975 457.429 350.93 457.576C346.173 457.749 341.416 457.923 336.659 458.096C331.286 458.292 325.836 458.48 320.604 457.241C315.373 456.001 309.211 452.946 306.489 448.309Z" fill="#FFB25B"/>
</svg>
